<svg xmlns="http://www.w3.org/2000/svg" width="732" height="888" viewBox="0 0 732 888" preserveAspectRatio="xMidYMid meet" role="img" aria-label="Village Green one-bedroom floor plan">
<defs><style>
    .fp{fill:#FFFFFF}
    .w{fill:none;stroke:#2C3E2D;stroke-width:7;stroke-linecap:butt}
    .wo{fill:none;stroke:#2C3E2D;stroke-width:10;stroke-linecap:butt}
    .d{fill:none;stroke:#7C9880;stroke-width:2.5;stroke-dasharray:5 6}
    .arc{fill:none;stroke:#5E7D63;stroke-width:3}
    .win{fill:none;stroke:#2C3E2D;stroke-width:2.5}
    .st{fill:none;stroke:#2C3E2D;stroke-width:2.5}
    .rm{fill:#22331F;font-family:'Helvetica Neue',Arial,sans-serif;font-size:25px;font-style:italic;text-anchor:middle}
    .cl{fill:#4A5C4D;font-family:'Helvetica Neue',Arial,sans-serif;font-size:18px;font-style:italic;text-anchor:middle}
    .sm{fill:#4A5C4D;font-family:'Helvetica Neue',Arial,sans-serif;font-size:14px;font-style:italic;text-anchor:middle}
  </style></defs>
<rect class="fp" x="18" y="24" width="696" height="841"/>
<path class="w" d="M104,16 V30 M104,486 V534 M104,620 V722 M104,807 V872 M278,17 V132 M278,220 V501 M453,17 V130 M453,221 V407 M453,471 V503 M272,125 H328 M403,125 H457 M12,226 H328 M403,226 H459 M273,333 H459 M12,495 H155 M229,495 H479 M552,495 H719 M12,664 H108"/>
<path class="d" d="M100,527 V627 M108,527 V627 M100,714 V814 M108,714 V814 M274,127 V227 M282,127 V227 M449,401 V473 M457,401 V473 M322,121 H406 M322,129 H406 M149,491 H234 M149,499 H234 M474,491 H557 M474,499 H557 M323,223 H412 M323,231 H412"/>
<path class="win" d="M709,638 V738 M714,638 V738 M719,638 V738 M707,638 H721 M707,738 H721"/>
<path class="arc" d="M127,865 V791 M127,791 A74,74 0 0 1 201,865"/>
<path class="wo" d="M18,24 H714 V638 M714,738 V865 H201 M127,865 H18 V24"/>
<text class="rm" x="149" y="124">Bathroom</text>
<text class="rm" x="149" y="365">Kitchen</text>
<text class="rm" x="583" y="259">Bedroom</text>
<text class="rm" x="405" y="690">Living Room</text>
<text class="cl" x="366" y="74">Closet</text>
<text class="cl" x="366" y="178">Hallway</text>
<text class="cl" x="366" y="284">Closet</text>
<text class="cl" x="366" y="418">Utility Closet</text>
<text class="sm" x="61" y="582">Closet</text>
<text class="sm" x="61" y="768">Closet</text>
</svg>